# xmcd
#
# Track frame offsets:
#  150
#  16413
#  35617
#  54055
#  72451
#  83883
#  105572
#  128081
#  149599
#  169343
#
# Disc length: 2507 seconds
#
# Revision: 0
# Processed by: cddbd v1.4PL0 Copyright (c) Steve Scherf et al.
# Submitted via: AltoMP3_Maker 3.0
#
DISCID=8709c90a
DTITLE=The Randy Rogers Band - The Randy Rogers Band Live at Cheatham St. Warehouse
DYEAR=1900
DGENRE=
TTITLE0=Where You and I Belong
TTITLE1=Superman
TTITLE2=Live On
TTITLE3=Memory
TTITLE4=Just This Side of Heaven
TTITLE5=The Ballad of Stanley
TTITLE6=65 Degrees
TTITLE7=Lost and Found
TTITLE8=Still Here
TTITLE9=I Miss You with Me
EXTD=
EXTT0=
EXTT1=
EXTT2=
EXTT3=
EXTT4=
EXTT5=
EXTT6=
EXTT7=
EXTT8=
EXTT9=
PLAYORDER=
